<?xml version="1.0" encoding="utf-8"?>
<!-- Generator: Adobe Adobe Illustrator 24.2.0, SVG Export Plug-In . SVG Version: 6.00 Build 0)  -->
<svg version="1.1" xmlns="http://www.w3.org/2000/svg" xmlns:xlink="http://www.w3.org/1999/xlink" x="0px" y="0px"
	 viewBox="0 0 24 24" style="enable-background:new 0 0 24 24;" xml:space="preserve">
<style type="text/css">
	.st0{fill:#FFFFFF;stroke:#000000;stroke-miterlimit:10;}
	.st1{display:none;}
	.st2{display:inline;fill:none;stroke:#000000;stroke-miterlimit:10;}
	.st3{fill:none;stroke:#000000;stroke-miterlimit:10;}
	.st4{stroke:#000000;stroke-miterlimit:10;}
</style>
<g id="Layer_2">
	<circle class="st0" cx="12" cy="12" r="3.85"/>
</g>
<g id="Layer_8" class="st1">
	<path class="st2" d="M1.62,20.89V3.11c0-0.75,0.61-1.36,1.36-1.36h17.69c0.75,0,1.36,0.61,1.36,1.36v17.79
		c0,0.75-0.61,1.36-1.36,1.36H2.97C2.22,22.25,1.62,21.64,1.62,20.89z"/>
</g>
<g id="Layer_3">
	<path class="st3" d="M2.4,20.35c0,0-1.75-6.26-1.75-8.35S2.4,3.65,2.4,3.65c0-0.79,0.64-1.43,1.43-1.43c0,0,6.1-1.7,8.17-1.7
		c2.01,0,8.17,1.7,8.17,1.7c0.79,0,1.43,0.64,1.43,1.43c0,0,1.7,6.32,1.7,8.35c0,2.15-1.7,8.35-1.7,8.35c0,0.79-0.64,1.43-1.43,1.43
		c0,0-6.24,1.7-8.17,1.7c-2.15,0-8.17-1.7-8.17-1.7C3.04,21.77,2.4,21.14,2.4,20.35z"/>
</g>
<g id="Layer_4">
	
		<rect x="4.14" y="4.33" transform="matrix(-0.7071 0.7071 -0.7071 -0.7071 28.6581 12.1294)" class="st3" width="15.35" height="15.35"/>
</g>
<g id="Layer_5">
	<rect x="8.44" y="11" class="st3" width="6.75" height="2"/>
</g>
<g id="Layer_6">
	<polygon class="st4" points="4.96,5.14 4.99,6.66 6.48,5.18 	"/>
	<polygon class="st4" points="18.71,5.11 17.19,5.15 18.67,6.63 	"/>
	<polygon class="st4" points="18.71,18.89 18.67,17.37 17.19,18.85 	"/>
	<polygon class="st4" points="4.9,18.91 6.42,18.88 4.94,17.39 	"/>
</g>
<g id="Layer_7">
	<circle class="st3" cx="12" cy="12" r="5.56"/>
</g>
</svg>
