<?xml version="1.0" encoding="iso-8859-1"?>
<!-- Generator: Adobe Illustrator 19.0.0, SVG Export Plug-In . SVG Version: 6.00 Build 0)  -->
<svg version="1.1" id="Layer_1" xmlns="http://www.w3.org/2000/svg" xmlns:xlink="http://www.w3.org/1999/xlink" x="0px" y="0px"
	 viewBox="0 0 512 512" style="enable-background:new 0 0 512 512;" xml:space="preserve">
<g>
	<path style="fill:#FFFFFF;" d="M378.042,89.208l-2.696,45.824c11.264,5.612,20.068,15.425,24.316,27.398l-287.329,0.006
		c4.248-11.976,13.052-21.793,24.318-27.405l-2.696-45.824H378.042"/>
	<path style="fill:#FFFFFF;" d="M142.094,89.208h-8.138l2.696,45.824c-16.051,7.996-27.104,24.525-27.104,43.675"/>
</g>
<path style="fill:#FA9C1C;" d="M112.334,162.436c-1.804,5.086-2.787,10.562-2.787,16.27c0,21.183,13.516,39.161,32.374,45.918
	l16.443,279.53h195.269l16.443-279.531c18.858-6.756,32.374-24.735,32.374-45.918c0-5.711-0.983-11.189-2.789-16.277"/>
<path style="fill:#FBB049;" d="M112.334,162.436c-1.804,5.086-2.787,10.562-2.787,16.27c0,21.183,13.516,39.161,32.374,45.918
	h228.154c18.858-6.756,32.374-24.735,32.374-45.918c0-5.711-0.983-11.189-2.789-16.277L112.334,162.436z"/>
<rect x="166.5" y="154.586" style="fill:#1D1D1B;" width="16.272" height="15.691"/>
<path style="fill:#FFFFFF;" d="M296.681,15.982c-9.481,0-18.463,2.073-26.588,5.719c-7.454-8.431-18.228-13.855-30.366-13.855
	c-18.341,0-33.663,12.216-38.742,28.896c-5.501-2.776-11.629-4.488-18.212-4.488c-22.467,0-40.681,18.214-40.681,40.681
	s18.214,40.681,40.681,40.681c16.652,0,30.817-10.07,37.084-24.41l141.912,0.001v-8.136
	C361.769,45.124,332.628,15.982,296.681,15.982z"/>
<g>
	<path style="fill:#1D1D1B;" d="M383.468,130.58l2.895-49.218h-16.747v-0.291c0-40.217-32.719-72.935-72.935-72.935
		c-8.47,0-16.756,1.458-24.703,4.34C263.095,4.491,251.616,0,239.727,0c-18.515,0-34.932,10.379-43.077,26.538
		c-4.549-1.416-9.192-2.13-13.877-2.13c-26.758,0-48.527,21.769-48.527,48.527c0,2.876,0.266,5.687,0.748,8.427h-9.359l2.895,49.218
		c-16.672,10.295-26.828,28.292-26.828,48.126c0,22.054,12.934,42.045,32.677,51.285L150.968,512h210.064l16.588-282.009
		c19.742-9.24,32.677-29.231,32.677-51.285C410.296,158.872,400.14,140.875,383.468,130.58z M182.773,40.1
		c4.945,0,9.883,1.227,14.678,3.646l8.323,4.2l2.716-8.919c4.249-13.958,16.802-23.335,31.236-23.335
		c9.404,0,18.1,3.979,24.488,11.205l3.822,4.324l5.266-2.362c7.443-3.338,15.308-5.032,23.377-5.032
		c31.565,0,57.244,25.68,57.244,57.244v0.291l-139.2-0.001l-2.055,4.703c-5.232,11.971-16.967,19.707-29.895,19.707
		c-18.105,0-32.836-14.731-32.836-32.836C149.938,54.83,164.668,40.1,182.773,40.1z M367.431,217.238l-4.881,1.749l-16.313,277.322
		H165.762l-16.313-277.322l-4.881-1.749c-16.255-5.823-27.176-21.308-27.176-38.532c0-2.875,0.3-5.694,0.87-8.427h31.965v-15.691
		h-24.983c3.801-5.194,8.856-9.521,14.904-12.535l4.638-2.311l-2.344-39.855c8.716,12.998,23.538,21.574,40.33,21.574
		c17.407,0,33.341-9.427,41.909-24.41l137.088,0.001l0,0h7.952l-2.511,42.69l4.638,2.311c6.048,3.014,11.103,7.341,14.904,12.535
		H199.046v15.691h194.69c0.569,2.733,0.87,5.554,0.87,8.427C394.605,195.93,383.684,211.414,367.431,217.238z"/>
	<rect x="190.904" y="463.769" style="fill:#1D1D1B;" width="81.362" height="15.691"/>
	<rect x="288.543" y="463.769" style="fill:#1D1D1B;" width="16.272" height="15.691"/>
</g>
<g>
</g>
<g>
</g>
<g>
</g>
<g>
</g>
<g>
</g>
<g>
</g>
<g>
</g>
<g>
</g>
<g>
</g>
<g>
</g>
<g>
</g>
<g>
</g>
<g>
</g>
<g>
</g>
<g>
</g>
</svg>
