<?xml version="1.0" encoding="iso-8859-1"?>
<!-- Generator: Adobe Illustrator 19.0.0, SVG Export Plug-In . SVG Version: 6.00 Build 0)  -->
<svg version="1.1" id="Layer_1" xmlns="http://www.w3.org/2000/svg" xmlns:xlink="http://www.w3.org/1999/xlink" x="0px" y="0px"
	 viewBox="0 0 511.998 511.998" style="enable-background:new 0 0 511.998 511.998;" xml:space="preserve">
<g>
	<g>
		<path d="M255.765,197.916c-37.46,0-67.937,30.475-67.937,67.937c0,37.46,30.476,67.937,67.937,67.937
			c37.46,0,67.937-30.476,67.937-67.937C323.702,228.392,293.226,197.916,255.765,197.916z M255.765,317.741
			c-28.612,0-51.889-23.277-51.889-51.889c0-28.612,23.277-51.889,51.889-51.889s51.889,23.276,51.889,51.889
			C307.654,294.464,284.377,317.741,255.765,317.741z"/>
	</g>
</g>
<g>
	<g>
		<path d="M492.521,302.566c-3.465-2.761-8.514-2.189-11.275,1.277c-3.127,3.925-6.778,7.823-10.851,11.581
			c-3.257,3.005-3.461,8.082-0.456,11.338c1.582,1.715,3.737,2.583,5.899,2.583c1.945,0,3.896-0.704,5.439-2.127
			c4.673-4.313,8.886-8.813,12.522-13.378C496.56,310.375,495.987,305.327,492.521,302.566z"/>
	</g>
</g>
<g>
	<g>
		<path d="M19.873,286.595c-1.975-4.717-3.282-9.541-3.888-14.334c-0.556-4.397-4.578-7.503-8.967-6.954
			c-4.397,0.556-7.51,4.57-6.954,8.967c0.787,6.23,2.471,12.46,5.003,18.514c1.287,3.077,4.268,4.93,7.406,4.93
			c1.031,0,2.081-0.201,3.093-0.624C19.654,295.384,21.583,290.683,19.873,286.595z"/>
	</g>
</g>
<g>
	<g>
		<path d="M114.507,167.206c-1.51-4.167-6.109-6.32-10.277-4.812c-5.605,2.031-11.107,4.2-16.355,6.449
			c-4.073,1.746-5.96,6.463-4.214,10.536c1.304,3.043,4.266,4.865,7.379,4.865c1.055,0,2.127-0.209,3.157-0.65
			c4.966-2.129,10.181-4.184,15.498-6.11C113.862,175.974,116.017,171.372,114.507,167.206z"/>
	</g>
</g>
<g>
	<g>
		<path d="M49.601,322.583c-4.412-3.434-8.472-7.011-12.067-10.63c-3.124-3.144-8.204-3.159-11.347-0.036
			c-3.143,3.123-3.16,8.204-0.036,11.347c4.073,4.1,8.647,8.131,13.593,11.982c1.466,1.14,3.201,1.694,4.924,1.694
			c2.39,0,4.756-1.063,6.337-3.095C53.726,330.347,53.098,325.305,49.601,322.583z"/>
	</g>
</g>
<g>
	<g>
		<path d="M92.213,347.251c-5.182-2.27-10.212-4.675-14.953-7.149c-3.929-2.051-8.776-0.527-10.826,3.402
			c-2.05,3.929-0.526,8.776,3.402,10.826c5.059,2.64,10.422,5.204,15.935,7.62c1.048,0.459,2.141,0.676,3.216,0.676
			c3.09,0,6.034-1.795,7.354-4.806C98.12,353.762,96.272,349.029,92.213,347.251z"/>
	</g>
</g>
<g>
	<g>
		<path d="M75.393,186.642c-1.55-5.427-2.844-10.797-3.845-15.961c-0.843-4.35-5.057-7.199-9.405-6.35
			c-4.35,0.844-7.194,5.054-6.35,9.405c0.662,3.416,1.454,6.916,2.34,10.449c-0.597,0.193-1.182,0.449-1.741,0.792
			c-5.243,3.217-10.22,6.6-14.793,10.056c-3.535,2.673-4.235,7.704-1.563,11.24c1.578,2.087,3.978,3.186,6.407,3.186
			c1.685,0,3.384-0.529,4.833-1.623c4.161-3.144,8.706-6.233,13.508-9.179c0.823-0.505,2.983-1.455,5.097-2.096
			C74.422,195.184,76.61,190.902,75.393,186.642z"/>
	</g>
</g>
<g>
	<g>
		<path d="M511.816,260.89c-0.328-4.42-4.186-7.743-8.596-7.408c-4.419,0.328-7.735,4.177-7.408,8.596
			c0.093,1.252,0.14,2.52,0.139,3.773c0,3.642-0.397,7.318-1.179,10.924c-0.939,4.331,1.81,8.604,6.141,9.542
			c0.573,0.124,1.145,0.184,1.709,0.184c3.694,0,7.019-2.568,7.834-6.325c1.024-4.722,1.543-9.542,1.543-14.322
			C512,264.208,511.938,262.538,511.816,260.89z"/>
	</g>
</g>
<g>
	<g>
		<path d="M412.4,164.288c-5.338-2.036-10.907-3.992-16.554-5.812c-4.219-1.359-8.74,0.959-10.099,5.176
			c-1.36,4.22,0.959,8.741,5.176,10.1c5.379,1.733,10.679,3.594,15.755,5.53c0.941,0.358,1.909,0.53,2.859,0.53
			c3.232,0,6.278-1.966,7.499-5.166C418.616,170.505,416.539,165.869,412.4,164.288z"/>
	</g>
</g>
<g>
	<g>
		<path d="M362.104,149.321c-5.586-1.254-11.337-2.423-17.095-3.475c-4.36-0.8-8.539,2.093-9.335,6.452
			c-0.796,4.359,2.093,8.538,6.452,9.334c5.547,1.013,11.085,2.139,16.461,3.347c0.593,0.133,1.183,0.197,1.765,0.197
			c3.671,0,6.983-2.536,7.822-6.267C369.146,154.584,366.427,150.291,362.104,149.321z"/>
	</g>
</g>
<g>
	<g>
		<path d="M499.17,225.271c-3.229-4.927-7.099-9.796-11.503-14.471c-3.038-3.226-8.117-3.378-11.343-0.338
			c-3.226,3.038-3.378,8.116-0.339,11.343c3.763,3.994,7.047,8.119,9.763,12.263c1.539,2.351,4.104,3.627,6.719,3.627
			c1.509,0,3.034-0.425,4.391-1.314C500.563,233.952,501.6,228.978,499.17,225.271z"/>
	</g>
</g>
<g>
	<g>
		<path d="M139.57,363.475c-5.456-1.429-10.873-2.983-16.1-4.614c-4.225-1.321-8.73,1.036-10.051,5.267
			c-1.321,4.23,1.037,8.73,5.267,10.051c5.463,1.706,11.121,3.328,16.817,4.82c0.682,0.179,1.365,0.264,2.039,0.264
			c3.561,0,6.812-2.387,7.757-5.992C146.42,368.983,143.856,364.597,139.57,363.475z"/>
	</g>
</g>
<g>
	<g>
		<path d="M258.457,138.009c-5.767-0.032-11.624,0.036-17.382,0.197c-4.429,0.122-7.92,3.813-7.798,8.243
			c0.121,4.354,3.688,7.802,8.017,7.802c0.075,0,0.151-0.001,0.227-0.003c5.583-0.155,11.261-0.221,16.852-0.19
			c0.015,0,0.029,0,0.044,0c4.411,0,7.999-3.565,8.023-7.981C266.462,141.645,262.889,138.033,258.457,138.009z"/>
	</g>
</g>
<g>
	<g>
		<path d="M215.112,147.559c-0.423-4.41-4.343-7.644-8.753-7.221c-5.788,0.555-11.607,1.218-17.297,1.969
			c-4.393,0.58-7.485,4.612-6.905,9.005c0.534,4.037,3.981,6.974,7.945,6.974c0.35,0,0.704-0.022,1.06-0.07
			c5.501-0.726,11.129-1.367,16.727-1.904C212.302,155.889,215.535,151.97,215.112,147.559z"/>
	</g>
</g>
<g>
	<g>
		<path d="M26.897,218.894c-3.554-2.645-8.582-1.906-11.227,1.648c-3.887,5.224-7.121,10.644-9.613,16.109
			c-1.838,4.032-0.06,8.791,3.972,10.63c1.079,0.492,2.21,0.725,3.324,0.725c3.047,0,5.959-1.744,7.306-4.698
			c2.022-4.435,4.675-8.871,7.886-13.186C31.189,226.566,30.452,221.538,26.897,218.894z"/>
	</g>
</g>
<g>
	<g>
		<path d="M451.527,341.487c-0.448-2.038-1.117-4.634-2.108-7.919c-1.252-4.151-2.782-8.327-4.372-12.528
			c-1.557-4.113-6.084-6.501-10.241-5.065c-4.296,1.484-6.488,6.211-4.888,10.431c1.725,4.549,3.285,9.082,4.672,13.519
			c-1.534,0.805-3.083,1.602-4.657,2.382c-3.807,1.887-5.768,6.369-4.182,10.311c1.282,3.184,4.306,5.049,7.459,5.049
			c1.192,0,2.404-0.267,3.544-0.83c3.505-1.73,6.932-3.523,10.242-5.36C450.551,349.504,452.401,345.456,451.527,341.487z"/>
	</g>
</g>
<g>
	<g>
		<path d="M298.405,383.981c-0.297-4.422-4.121-7.765-8.545-7.467c-5.542,0.373-11.203,0.659-16.825,0.849
			c-4.429,0.15-7.899,3.861-7.749,8.29c0.147,4.337,3.708,7.753,8.014,7.753c0.091,0,0.183-0.001,0.275-0.004
			c5.801-0.196,11.642-0.49,17.363-0.876C295.361,392.227,298.703,388.402,298.405,383.981z"/>
	</g>
</g>
<g>
	<g>
		<path d="M459.806,187.929c-4.788-3.124-9.937-6.174-15.303-9.066c-3.902-2.101-8.768-0.643-10.87,3.258
			c-2.102,3.901-0.644,8.768,3.258,10.87c4.973,2.679,9.733,5.498,14.146,8.378c1.353,0.883,2.874,1.305,4.378,1.305
			c2.62,0,5.189-1.282,6.727-3.64C464.562,195.322,463.517,190.35,459.806,187.929z"/>
	</g>
</g>
<g>
	<g>
		<path d="M164.218,154.364c-0.916-4.336-5.175-7.105-9.509-6.193c-5.731,1.21-11.454,2.544-17.006,3.965
			c-4.293,1.099-6.884,5.469-5.785,9.763c0.928,3.627,4.19,6.037,7.768,6.037c0.658,0,1.328-0.082,1.994-0.253
			c5.333-1.365,10.832-2.647,16.343-3.81C162.359,162.958,165.132,158.701,164.218,154.364z"/>
	</g>
</g>
<g>
	<g>
		<path d="M409.196,360.156c-1.468-4.181-6.047-6.381-10.23-4.912c-0.281,0.098-0.57,0.195-0.853,0.292
			c-5.103-12.135-17.113-20.68-31.082-20.68c-18.583,0-33.701,15.118-33.701,33.701c0,1.008,0.052,2.003,0.14,2.988
			c-3.362,0.545-6.741,1.066-10.127,1.536c-4.39,0.609-7.454,4.66-6.845,9.05c0.557,4.015,3.995,6.922,7.937,6.922
			c0.367,0,0.738-0.025,1.113-0.077c4.437-0.616,8.865-1.315,13.249-2.053c6.02,9.222,16.424,15.333,28.234,15.333
			c17.538,0.003,31.984-13.465,33.553-30.602c1.241-0.419,2.48-0.841,3.7-1.27C408.466,368.917,410.664,364.338,409.196,360.156z
			 M367.032,386.213c-9.734,0-17.653-7.919-17.653-17.653c0-9.734,7.919-17.653,17.653-17.653c9.734,0,17.653,7.919,17.653,17.653
			C384.685,378.293,376.766,386.213,367.032,386.213z"/>
	</g>
</g>
<g>
	<g>
		<path d="M252.409,101.792c-5.068-2.998-10.199-5.878-15.252-8.559c-3.914-2.077-8.772-0.588-10.85,3.325s-0.587,8.772,3.327,10.85
			c4.836,2.567,9.749,5.325,14.605,8.196c1.282,0.759,2.689,1.119,4.077,1.119c2.743,0,5.417-1.408,6.914-3.94
			C257.487,108.969,256.223,104.047,252.409,101.792z"/>
	</g>
</g>
<g>
	<g>
		<path d="M413.786,454.002c-1.385-4.21-5.923-6.5-10.131-5.114c-4.652,1.531-9.738,2.622-15.117,3.245
			c-4.403,0.509-7.559,4.49-7.049,8.893c0.473,4.089,3.941,7.103,7.961,7.103c0.307,0,0.618-0.017,0.932-0.053
			c6.456-0.746,12.609-2.072,18.292-3.942C412.883,462.747,415.172,458.212,413.786,454.002z"/>
	</g>
</g>
<g>
	<g>
		<path d="M430.577,288.659c-2.614-5.087-5.43-10.257-8.37-15.367c-2.209-3.842-7.116-5.163-10.957-2.954
			c-3.841,2.209-5.164,7.115-2.954,10.957c2.814,4.891,5.507,9.836,8.007,14.7c1.423,2.768,4.231,4.358,7.143,4.358
			c1.235,0,2.487-0.286,3.661-0.889C431.05,297.438,432.603,292.6,430.577,288.659z"/>
	</g>
</g>
<g>
	<g>
		<path d="M446.906,416.271c-4.026-1.847-8.79-0.079-10.639,3.949c-2.12,4.624-4.795,8.841-7.95,12.535
			c-2.878,3.369-2.48,8.435,0.89,11.313c1.512,1.291,3.365,1.923,5.208,1.923c2.266,0,4.518-0.954,6.105-2.813
			c4.119-4.822,7.596-10.295,10.336-16.268C452.703,422.881,450.934,418.118,446.906,416.271z"/>
	</g>
</g>
<g>
	<g>
		<path d="M403.527,243.811c-3.265-4.715-6.693-9.47-10.189-14.133c-2.659-3.544-7.689-4.263-11.234-1.605
			c-3.544,2.659-4.263,7.688-1.605,11.234c3.377,4.502,6.685,9.091,9.834,13.64c1.559,2.251,4.06,3.457,6.604,3.457
			c1.575,0,3.167-0.463,4.56-1.427C405.142,252.453,406.05,247.455,403.527,243.811z"/>
	</g>
</g>
<g>
	<g>
		<path d="M371.474,202.604c-3.765-4.343-7.672-8.697-11.612-12.944c-3.016-3.248-8.093-3.439-11.341-0.424
			c-3.248,3.014-3.438,8.091-0.424,11.34c3.818,4.116,7.605,8.334,11.252,12.541c1.587,1.829,3.819,2.768,6.066,2.768
			c1.863,0,3.735-0.645,5.253-1.961C374.017,211.02,374.378,205.952,371.474,202.604z"/>
	</g>
</g>
<g>
	<g>
		<path d="M356.599,451.065c-5.166-0.814-10.556-1.933-16.022-3.326c-4.293-1.096-8.662,1.499-9.757,5.794
			c-1.094,4.294,1.499,8.663,5.794,9.757c5.947,1.516,11.831,2.737,17.487,3.628c0.424,0.066,0.844,0.098,1.259,0.098
			c3.88,0,7.293-2.821,7.916-6.776C363.966,455.863,360.976,451.755,356.599,451.065z"/>
	</g>
</g>
<g>
	<g>
		<path d="M264.576,414.477c-4.707-2.836-9.481-5.853-14.19-8.964c-3.698-2.441-8.674-1.427-11.119,2.269
			c-2.444,3.697-1.427,8.674,2.269,11.119c4.894,3.234,9.858,6.371,14.756,9.322c1.296,0.781,2.724,1.152,4.134,1.152
			c2.721,0,5.374-1.383,6.88-3.884C269.594,421.697,268.372,416.765,264.576,414.477z"/>
	</g>
</g>
<g>
	<g>
		<path d="M205.343,78.42c-5.586-2.226-11.169-4.244-16.599-6c-4.215-1.365-8.74,0.95-10.103,5.166
			c-1.363,4.215,0.95,8.739,5.166,10.103c5.091,1.647,10.338,3.543,15.594,5.638c0.975,0.388,1.979,0.572,2.968,0.572
			c3.188,0,6.204-1.914,7.456-5.055C211.467,84.728,209.46,80.061,205.343,78.42z"/>
	</g>
</g>
<g>
	<g>
		<path d="M184.859,352.878c-2.717-2.6-5.46-5.281-8.148-7.969c-1.29-1.29-2.57-2.584-3.839-3.88c-3.1-3.167-8.18-3.22-11.347-0.121
			c-3.167,3.1-3.22,8.18-0.121,11.347c1.31,1.337,2.629,2.671,3.961,4.002c2.772,2.772,5.599,5.537,8.401,8.217
			c1.555,1.487,3.551,2.226,5.546,2.226c2.113,0,4.223-0.829,5.799-2.477C188.173,361.02,188.061,355.941,184.859,352.878z"/>
	</g>
</g>
<g>
	<g>
		<path d="M457.915,372.375c-0.469-4.406-4.424-7.596-8.827-7.13c-4.407,0.469-7.599,4.421-7.131,8.828
			c0.479,4.51,0.722,8.93,0.722,13.138c0,0.969-0.013,1.931-0.039,2.885c-0.12,4.43,3.374,8.118,7.805,8.237
			c0.074,0.002,0.147,0.003,0.22,0.003c4.331,0,7.899-3.451,8.017-7.808c0.03-1.098,0.045-2.204,0.045-3.319
			C458.727,382.438,458.454,377.447,457.915,372.375z"/>
	</g>
</g>
<g>
	<g>
		<path d="M119.404,276.145c-3.173-4.657-6.261-9.389-9.174-14.065c-2.344-3.761-7.292-4.91-11.054-2.564
			c-3.761,2.344-4.909,7.293-2.565,11.054c3.029,4.859,6.235,9.775,9.531,14.612c1.553,2.279,4.073,3.506,6.639,3.506
			c1.556,0,3.128-0.451,4.512-1.394C120.954,284.8,121.899,279.808,119.404,276.145z"/>
	</g>
</g>
<g>
	<g>
		<path d="M150.109,316.181c-3.657-4.275-7.266-8.642-10.724-12.983c-2.762-3.465-7.811-4.036-11.276-1.274
			c-3.465,2.762-4.036,7.81-1.274,11.276c3.574,4.485,7.303,8.999,11.082,13.415c1.587,1.854,3.837,2.807,6.1,2.807
			c1.846,0,3.701-0.633,5.214-1.928C152.597,324.614,152.99,319.549,150.109,316.181z"/>
	</g>
</g>
<g>
	<g>
		<path d="M93.8,232.9c-2.536-5.051-4.92-10.133-7.09-15.104c-1.772-4.062-6.502-5.921-10.563-4.146
			c-4.062,1.772-5.919,6.502-4.146,10.563c2.283,5.235,4.792,10.58,7.457,15.886c1.408,2.806,4.238,4.426,7.177,4.426
			c1.21,0,2.438-0.275,3.594-0.855C94.189,241.683,95.788,236.86,93.8,232.9z"/>
	</g>
</g>
<g>
	<g>
		<path d="M154.08,64.292c-4.561-0.625-9.049-1.04-13.403-1.246c-1.605-3.372-3.795-6.533-6.582-9.321
			c-13.14-13.14-34.52-13.14-47.661,0c-7.813,7.813-10.979,18.54-9.501,28.714c-0.802,0.728-1.592,1.468-2.352,2.229
			c-0.377,0.377-0.747,0.756-1.114,1.139c-3.058,3.207-2.938,8.286,0.27,11.345c1.555,1.482,3.547,2.217,5.538,2.217
			c1.498,0,2.99-0.426,4.297-1.255c0.875,1.135,1.823,2.232,2.863,3.272c6.57,6.57,15.201,9.855,23.83,9.855
			c8.63,0,17.26-3.284,23.83-9.855c6.12-6.12,9.386-14.028,9.805-22.057c2.622,0.206,5.294,0.493,8,0.864
			c0.37,0.05,0.737,0.075,1.1,0.075c3.948,0,7.389-2.914,7.94-6.935C161.542,68.942,158.47,64.894,154.08,64.292z M122.745,90.037
			c-6.884,6.883-18.082,6.883-24.965,0c-6.881-6.884-6.881-18.082,0.001-24.964c3.442-3.442,7.962-5.162,12.482-5.162
			s9.042,1.72,12.482,5.162C129.628,71.957,129.628,83.155,122.745,90.037z"/>
	</g>
</g>
<g>
	<g>
		<path d="M309.222,437.199c-5-2.06-10.121-4.344-15.222-6.788c-3.996-1.916-8.789-0.229-10.704,3.767
			c-1.916,3.996-0.229,8.788,3.767,10.704c5.37,2.574,10.768,4.981,16.045,7.155c1,0.412,2.035,0.607,3.053,0.607
			c3.154,0,6.146-1.872,7.423-4.97C315.274,443.577,313.32,438.887,309.222,437.199z"/>
	</g>
</g>
<g>
	<g>
		<path d="M65.36,113.458c-4.306-1.058-8.648,1.581-9.702,5.885c-1.408,5.751-2.306,11.933-2.666,18.375
			c-0.249,4.423,3.137,8.211,7.562,8.459c0.153,0.009,0.305,0.013,0.457,0.013c4.225,0,7.764-3.304,8.004-7.575
			c0.306-5.461,1.057-10.661,2.231-15.456C72.299,118.855,69.664,114.512,65.36,113.458z"/>
	</g>
</g>
<g>
	<g>
		<path d="M240.144,377.415c-23.473-0.715-46.502-3.047-68.446-6.933c-4.363-0.773-8.527,2.139-9.3,6.503
			c-0.772,4.364,2.139,8.528,6.503,9.3c22.705,4.021,46.51,6.433,70.756,7.171c0.083,0.003,0.167,0.003,0.249,0.003
			c4.318,0,7.884-3.433,8.015-7.78C248.056,381.251,244.574,377.55,240.144,377.415z"/>
	</g>
</g>
<g>
	<g>
		<path d="M335.401,164.982c-16.931-15.997-34.696-30.641-52.802-43.527c-3.611-2.571-8.621-1.726-11.19,1.885
			c-2.568,3.61-1.725,8.621,1.886,11.19c17.504,12.458,34.692,26.628,51.085,42.118c1.551,1.466,3.532,2.191,5.509,2.191
			c2.13,0,4.256-0.843,5.834-2.513C338.767,173.104,338.622,168.026,335.401,164.982z"/>
	</g>
</g>
<g>
</g>
<g>
</g>
<g>
</g>
<g>
</g>
<g>
</g>
<g>
</g>
<g>
</g>
<g>
</g>
<g>
</g>
<g>
</g>
<g>
</g>
<g>
</g>
<g>
</g>
<g>
</g>
<g>
</g>
</svg>
